<svg width="36" height="36" viewBox="0 0 36 36" fill="none" xmlns="http://www.w3.org/2000/svg">
<path d="M32.1838 15.2309C32.3683 16.2194 32.4688 17.2529 32.4688 18.3314C32.4688 26.7674 26.8228 32.7659 18.2953 32.7659C16.356 32.7665 14.4357 32.3849 12.6439 31.6431C10.8521 30.9012 9.22411 29.8136 7.85284 28.4423C6.48157 27.0711 5.39394 25.4431 4.65209 23.6513C3.91024 21.8595 3.52871 19.9392 3.5293 17.9999C3.52871 16.0606 3.91024 14.1402 4.65209 12.3485C5.39394 10.5567 6.48157 8.9287 7.85284 7.55743C9.22411 6.18616 10.8521 5.09853 12.6439 4.35668C14.4357 3.61483 16.356 3.2333 18.2953 3.23389C22.2823 3.23389 25.6138 4.70089 28.1698 7.08289L24.0073 11.2454V11.2349C22.4578 9.75889 20.4913 9.00139 18.2953 9.00139C13.4233 9.00139 9.4633 13.1174 9.4633 17.9909C9.4633 22.8629 13.4233 26.9879 18.2953 26.9879C22.7158 26.9879 25.7248 24.4604 26.3428 20.9894H18.2953V15.2309H32.1853H32.1838Z" fill="#D4D4D5"/>
</svg>
