<svg width="36" height="36" viewBox="0 0 36 36" fill="none" xmlns="http://www.w3.org/2000/svg">
<path d="M26.5453 18.4582C26.5312 16.0605 27.6176 14.2535 29.8113 12.9211C28.5844 11.1633 26.7281 10.1965 24.2812 10.0102C21.9645 9.82734 19.4297 11.3602 18.5016 11.3602C17.5207 11.3602 15.2777 10.0734 13.5129 10.0734C9.8707 10.1297 6 12.9773 6 18.7711C6 20.4832 6.31289 22.2516 6.93867 24.0727C7.77539 26.4703 10.7918 32.3449 13.9383 32.25C15.5836 32.2113 16.7473 31.0828 18.8883 31.0828C20.966 31.0828 22.0418 32.25 23.877 32.25C27.0516 32.2043 29.7797 26.8641 30.5742 24.4594C26.3168 22.452 26.5453 18.5813 26.5453 18.4582ZM22.8504 7.73555C24.6328 5.61914 24.4711 3.69258 24.4184 3C22.8434 3.09141 21.0223 4.07227 19.9852 5.27813C18.8426 6.57188 18.1711 8.17148 18.3152 9.975C20.0168 10.1051 21.5707 9.22969 22.8504 7.73555Z" fill="#D4D4D5"/>
</svg>
